<svg width="64" height="64" viewBox="0 0 64 64" fill="none" xmlns="http://www.w3.org/2000/svg">
<path d="M60.776 9.45131C60.3833 9.01799 59.9049 8.671 59.371 8.43236C58.8371 8.19372 58.2595 8.06864 57.6747 8.06506H6.32723C5.74247 8.06864 5.16483 8.19372 4.63096 8.43236C4.09709 8.671 3.61865 9.01799 3.22598 9.45131C2.7491 9.9752 2.38444 10.5911 2.15443 11.2612C1.92441 11.9312 1.83391 12.6412 1.88848 13.3476L2.62598 24.0726C2.67441 24.8042 2.87719 25.5174 3.22098 26.1651C2.94598 28.1838 2.82348 30.6351 2.94473 33.6113C2.95165 33.7738 3.0216 33.9271 3.13973 34.0388C3.26473 34.1563 4.45473 35.2076 8.34973 36.1201L8.40598 36.1301C9.44778 36.2632 10.497 36.3304 11.5472 36.3313C13.1085 36.3313 14.9222 36.1663 16.1585 35.5363C15.7022 38.4213 15.5572 41.4413 15.5572 44.1063C15.5573 44.2059 15.5811 44.304 15.6268 44.3925C15.6725 44.481 15.7386 44.5573 15.8197 44.6151C15.8997 44.6726 17.8447 46.0201 23.6697 46.5501H23.7272C23.9572 46.5501 28.7397 46.5326 31.4372 45.2301L35.876 55.5563C35.9247 55.6679 36.0049 55.7629 36.1069 55.8295C36.2088 55.8961 36.328 55.9315 36.4497 55.9313C36.5357 55.932 36.6209 55.9145 36.6997 55.8801C36.7752 55.8477 36.8435 55.8007 36.9008 55.7419C36.9581 55.6831 37.0032 55.6136 37.0336 55.5373C37.0641 55.461 37.0791 55.3795 37.078 55.2974C37.0769 55.2153 37.0597 55.1342 37.0272 55.0588L32.501 44.5401C32.6096 44.4282 32.6725 44.2797 32.6772 44.1238C32.6772 44.0838 32.686 43.7726 32.6772 43.2551L35.521 47.9913L38.2097 55.5201C38.2531 55.6415 38.3329 55.7466 38.4383 55.8209C38.5437 55.8952 38.6695 55.9351 38.7985 55.9351C38.8701 55.9349 38.9412 55.9222 39.0085 55.8976C39.164 55.8411 39.2907 55.7254 39.361 55.5757C39.4313 55.426 39.4394 55.2545 39.3835 55.0988L38.796 53.4563L39.4397 54.5276C39.4812 54.5995 39.5366 54.6624 39.6027 54.7127C39.6687 54.763 39.7442 54.7996 39.8245 54.8204C39.9049 54.8412 39.9886 54.8458 40.0708 54.8339C40.153 54.822 40.2319 54.7938 40.3031 54.7511C40.3743 54.7083 40.4362 54.6518 40.4853 54.5848C40.5344 54.5179 40.5696 54.4418 40.589 54.361C40.6083 54.2803 40.6114 54.1965 40.598 54.1146C40.5846 54.0326 40.555 53.9542 40.511 53.8838L36.6635 47.4501L33.601 38.8751C33.4893 38.5691 33.2703 38.3141 32.9847 38.1576L32.4572 37.8751L33.521 38.3151L42.481 55.6013C42.5187 55.6742 42.5705 55.7389 42.6332 55.7918C42.696 55.8447 42.7686 55.8847 42.8468 55.9096C42.9251 55.9344 43.0074 55.9436 43.0892 55.9366C43.171 55.9296 43.2506 55.9066 43.3235 55.8688C43.3964 55.8311 43.4611 55.7793 43.514 55.7165C43.5669 55.6538 43.6069 55.5812 43.6317 55.503C43.6566 55.4247 43.6657 55.3424 43.6588 55.2606C43.6518 55.1788 43.6287 55.0992 43.591 55.0263L34.666 37.8026L34.6585 37.7876L34.6047 37.6913C34.4737 37.4549 34.2661 37.2701 34.016 37.1676L32.1947 36.4176C32.1522 36.1234 32.1081 35.8355 32.0622 35.5538L32.106 35.5251C32.9397 35.9476 35.1272 36.8201 39.5435 37.2213H39.5997C39.8497 37.2213 45.6297 37.2001 48.0597 35.4626C49.2935 36.0538 51.0535 36.2126 52.5747 36.2126C53.6252 36.2079 54.6744 36.1369 55.716 36.0001L55.7722 35.9901C59.666 35.0776 60.8597 34.0263 60.9822 33.9088C61.1004 33.7971 61.1703 33.6438 61.1772 33.4813C61.3022 30.4576 61.171 27.9813 60.8872 25.9388C61.1638 25.3494 61.3279 24.7135 61.371 24.0638L62.1135 13.3388C62.1668 12.6339 62.0757 11.9255 61.8457 11.2571C61.6158 10.5886 61.2517 9.97417 60.776 9.45131ZM8.61098 34.8963C5.87598 34.2501 4.62598 33.5513 4.18723 33.2651C4.10809 31.3604 4.15361 29.4526 4.32348 27.5538C4.37848 26.9713 4.44848 26.4288 4.52598 25.9088C5.52598 19.3451 8.19598 18.1688 8.26348 18.1413H8.27473C9.60723 17.6163 10.716 17.6863 11.666 18.3551C13.3635 19.5488 14.5747 22.6613 15.1747 27.3626C15.1847 27.4401 15.1935 27.5176 15.2035 27.5963C15.2451 27.9388 15.2822 28.2776 15.3147 28.6126C15.5222 30.7063 15.5647 32.5976 15.5647 33.7201C15.5647 33.9638 15.5647 34.2063 15.5647 34.4451C13.7647 35.3413 10.0122 35.0876 8.61098 34.8963ZM31.126 28.6076C31.2835 30.0288 31.3635 31.3351 31.4022 32.3751C31.0741 31.0765 30.616 29.8143 30.0347 28.6076C29.8228 28.1776 29.5861 27.7602 29.326 27.3576C28.9964 26.8389 28.6153 26.3547 28.1885 25.9126C26.9385 24.6251 25.4385 23.9726 23.7372 23.9713C23.5347 23.9713 21.9747 24.0138 20.2835 25.6476C19.7578 26.1619 19.2938 26.7358 18.901 27.3576C18.6412 27.7602 18.405 28.1776 18.1935 28.6076C17.6313 29.7692 17.185 30.9834 16.861 32.2326C16.9085 30.9242 16.9918 29.7159 17.111 28.6076C17.156 28.1759 17.2051 27.7592 17.2585 27.3576C18.0222 21.5663 19.661 18.6951 21.096 17.2726C22.471 15.9113 23.6447 15.8863 23.721 15.8863H23.7385C25.1135 15.8863 26.271 16.3976 27.2947 17.4476C29.4297 19.6401 30.4697 23.7126 30.9735 27.3576C31.026 27.7813 31.0772 28.1988 31.126 28.6076ZM31.4122 41.9826C31.4397 42.8176 31.441 43.4538 31.4385 43.7988C31.2849 43.9066 31.1231 44.0023 30.9547 44.0851C29.011 45.0626 25.2522 45.2976 23.7635 45.3013C19.5135 44.9113 17.486 44.0801 16.8172 43.7426C16.831 40.6776 17.031 38.1176 17.3522 35.9838C17.4172 35.5488 17.4885 35.1301 17.5635 34.7338C18.0822 31.9663 18.8197 30.0026 19.6047 28.6088C19.8481 28.1724 20.1234 27.7546 20.4285 27.3588C20.6324 27.0947 20.8533 26.8442 21.0897 26.6088C22.4647 25.2476 23.6385 25.2226 23.7147 25.2226H23.7322C25.1072 25.2226 26.2647 25.7338 27.2885 26.7851C27.4651 26.9674 27.632 27.1589 27.7885 27.3588C28.0968 27.753 28.3735 28.171 28.616 28.6088C29.6097 30.3826 30.256 32.6413 30.6722 34.8826C30.7339 35.2059 30.7897 35.5292 30.8397 35.8526L29.4735 35.2876L26.3847 34.0113C26.1824 33.9259 25.9549 33.9217 25.7495 33.9995C25.5441 34.0774 25.3765 34.2312 25.2815 34.4293C25.1865 34.6273 25.1714 34.8543 25.2392 35.0632C25.3071 35.2721 25.4527 35.4469 25.646 35.5513L26.171 35.8401L28.031 36.8638L31.1897 38.6026C31.1897 38.6113 31.1897 38.6213 31.1897 38.6313C31.2747 39.5063 31.331 40.3376 31.3672 41.0663C31.3872 41.3926 31.3997 41.7001 31.4085 41.9838L31.4122 41.9826ZM33.386 41.9826L32.611 40.6901C32.591 40.3488 32.5685 39.9888 32.5397 39.6138L33.386 41.9826ZM47.3072 34.4651C45.5835 35.6838 41.256 35.9651 39.631 35.9651C35.381 35.5763 33.361 34.7451 32.6897 34.4076C32.6897 34.2751 32.6897 34.1088 32.6897 33.9138C32.7122 31.9376 32.8147 30.1776 32.9735 28.6101C33.0185 28.1784 33.0676 27.7617 33.121 27.3601C33.8835 21.5688 35.5222 18.6976 36.9572 17.2751C38.3322 15.9138 39.506 15.8888 39.5822 15.8888H39.5985C40.9735 15.8888 42.1322 16.4001 43.1547 17.4501C45.2897 19.6426 46.3297 23.7151 46.8347 27.3601C46.8935 27.7838 46.9447 28.2013 46.9897 28.6101C47.2023 30.5544 47.307 32.5091 47.3035 34.4651H47.3072ZM59.9435 33.1388C59.5047 33.4301 58.2435 34.1301 55.5197 34.7713C54.1172 34.9626 50.3597 35.2188 48.5622 34.3126C48.5434 32.408 48.6235 30.5038 48.8022 28.6076C48.8385 28.2326 48.8785 27.8576 48.9272 27.4826L48.9422 27.3576C49.5372 22.5863 50.7547 19.4313 52.4672 18.2251C53.416 17.5563 54.526 17.4876 55.8585 18.0113L55.8785 18.0188C55.8885 18.0188 56.9435 18.4401 57.991 20.3938C58.7997 21.9063 59.3022 23.7688 59.5985 25.7188C59.686 26.2851 59.7547 26.8601 59.8085 27.4351C59.9738 29.3316 60.0177 31.2367 59.9397 33.1388H59.9435ZM56.306 16.8463C54.5772 16.1676 53.0422 16.2876 51.741 17.2038C49.5635 18.7363 48.4472 22.3538 47.8785 25.9038C47.141 21.5613 45.856 18.4288 44.0522 16.5763C42.8022 15.2901 41.3022 14.6363 39.601 14.6363C39.3997 14.6363 37.8385 14.6788 36.1472 16.3126C33.9035 18.4801 32.681 22.1638 32.046 26.1113C31.3122 21.6613 30.016 18.4576 28.1847 16.5763C26.9347 15.2901 25.4347 14.6363 23.7335 14.6363C23.531 14.6363 21.971 14.6788 20.2797 16.3126C18.0847 18.4376 16.866 22.0051 16.2197 25.8551C15.6435 22.3551 14.5285 18.8363 12.386 17.3288C11.0847 16.4126 9.54973 16.2926 7.82098 16.9713C7.56098 17.0701 5.17098 18.1063 3.82098 23.1526L3.13723 13.2613C3.0934 12.7262 3.15951 12.1878 3.33148 11.6792C3.50345 11.1706 3.77766 10.7025 4.13723 10.3038C4.41355 9.99657 4.75066 9.75005 5.1272 9.57985C5.50375 9.40965 5.91153 9.31948 6.32473 9.31506H57.6747C58.0879 9.31948 58.4957 9.40965 58.8723 9.57985C59.2488 9.75005 59.5859 9.99657 59.8622 10.3038C60.2218 10.7025 60.496 11.1706 60.668 11.6792C60.84 12.1878 60.9061 12.7262 60.8622 13.2613L60.211 22.6926C58.8497 17.9351 56.5597 16.9426 56.306 16.8463Z" fill="#123F35"/>
<path d="M41.7672 27.3751L41.7109 27.3639C39.1634 26.8726 38.9134 26.6064 38.4184 24.0251C38.3917 23.8818 38.3156 23.7523 38.2034 23.6591C38.0912 23.5659 37.9499 23.5149 37.8041 23.5149C37.6582 23.5149 37.5169 23.5659 37.4047 23.6591C37.2925 23.7523 37.2165 23.8818 37.1897 24.0251C36.6897 26.6064 36.4397 26.8726 33.8972 27.3639L33.8409 27.3751C33.6983 27.4026 33.5696 27.4789 33.4771 27.5909C33.3846 27.7029 33.334 27.8436 33.334 27.9889C33.334 28.1342 33.3846 28.2749 33.4771 28.3869C33.5696 28.4989 33.6983 28.5752 33.8409 28.6026L33.8972 28.6139C36.4447 29.1051 36.6947 29.3639 37.1897 31.9514C37.2165 32.0948 37.2925 32.2243 37.4047 32.3174C37.5169 32.4106 37.6582 32.4616 37.8041 32.4616C37.9499 32.4616 38.0912 32.4106 38.2034 32.3174C38.3156 32.2243 38.3917 32.0948 38.4184 31.9514C38.9184 29.3701 39.1684 29.1051 41.7109 28.6139L41.7672 28.6026C41.9098 28.5752 42.0385 28.4989 42.131 28.3869C42.2235 28.2749 42.2741 28.1342 42.2741 27.9889C42.2741 27.8436 42.2235 27.7029 42.131 27.5909C42.0385 27.4789 41.9098 27.4026 41.7672 27.3751ZM37.8047 29.5264C37.5117 28.833 36.9596 28.2813 36.2659 27.9889C36.9596 27.6965 37.5117 27.1448 37.8047 26.4514C38.0961 27.1454 38.6482 27.6974 39.3422 27.9889C38.6482 28.2804 38.0961 28.8324 37.8047 29.5264Z" fill="#123F35"/>
<path d="M13.826 40.4776C11.226 39.9776 10.9747 39.7276 10.476 37.1276C10.4487 36.985 10.3727 36.8564 10.261 36.7638C10.1775 36.6952 10.0777 36.6494 9.97123 36.6308C9.86477 36.6123 9.75532 36.6217 9.65358 36.6581C9.55183 36.6945 9.46126 36.7566 9.3907 36.8385C9.32014 36.9203 9.272 37.0191 9.25099 37.1251C8.75099 39.7251 8.50099 39.9763 5.90099 40.4751C5.75833 40.5025 5.62968 40.5788 5.53717 40.6908C5.44465 40.8028 5.39404 40.9435 5.39404 41.0888C5.39404 41.2341 5.44465 41.3748 5.53717 41.4868C5.62968 41.5988 5.75833 41.6751 5.90099 41.7026C8.50099 42.2026 8.75224 42.4526 9.25099 45.0513C9.27843 45.194 9.35471 45.3226 9.46672 45.4151C9.57873 45.5076 9.71947 45.5583 9.86474 45.5583C10.01 45.5583 10.1508 45.5076 10.2628 45.4151C10.3748 45.3226 10.4511 45.194 10.4785 45.0513C10.9785 42.4513 11.2285 42.2013 13.8285 41.7026C13.9712 41.6751 14.0998 41.5988 14.1923 41.4868C14.2848 41.3748 14.3354 41.2341 14.3354 41.0888C14.3354 40.9435 14.2848 40.8028 14.1923 40.6908C14.0998 40.5788 13.9712 40.5025 13.8285 40.4751L13.826 40.4776ZM9.86224 42.6251C9.56999 41.9316 9.01822 41.3798 8.32474 41.0876C9.01822 40.7953 9.56999 40.2435 9.86224 39.5501C10.1545 40.2435 10.7063 40.7953 11.3997 41.0876C10.7063 41.3798 10.1545 41.9316 9.86224 42.6251Z" fill="#123F35"/>
<path d="M20.1598 14.2588C17.5598 13.7588 17.3098 13.5088 16.811 10.91C16.7836 10.7674 16.7073 10.6387 16.5953 10.5462C16.4833 10.4537 16.3425 10.4031 16.1973 10.4031C16.052 10.4031 15.9112 10.4537 15.7992 10.5462C15.6872 10.6387 15.611 10.7674 15.5835 10.91C15.0835 13.51 14.8335 13.76 12.2335 14.2588C12.0909 14.2862 11.9622 14.3625 11.8697 14.4745C11.7772 14.5865 11.7266 14.7273 11.7266 14.8725C11.7266 15.0178 11.7772 15.1585 11.8697 15.2705C11.9622 15.3826 12.0909 15.4588 12.2335 15.4863C14.8335 15.9863 15.0848 16.2363 15.5835 18.8363C15.611 18.9789 15.6872 19.1076 15.7992 19.2001C15.9112 19.2926 16.052 19.3432 16.1973 19.3432C16.3425 19.3432 16.4833 19.2926 16.5953 19.2001C16.7073 19.1076 16.7836 18.9789 16.811 18.8363C17.311 16.2363 17.561 15.985 20.1598 15.4863C20.3024 15.4588 20.4311 15.3826 20.5236 15.2705C20.6161 15.1585 20.6667 15.0178 20.6667 14.8725C20.6667 14.7273 20.6161 14.5865 20.5236 14.4745C20.4311 14.3625 20.3024 14.2862 20.1598 14.2588ZM16.1973 16.41C15.905 15.7165 15.3532 15.1648 14.6598 14.8725C15.3532 14.5803 15.905 14.0285 16.1973 13.335C16.4895 14.0285 17.0413 14.5803 17.7348 14.8725C17.0413 15.1648 16.4895 15.7165 16.1973 16.41Z" fill="#123F35"/>
</svg>
