<svg width="64" height="64" viewBox="0 0 64 64" fill="none" xmlns="http://www.w3.org/2000/svg">
<path d="M61.5 38.725H56.665C54.9311 38.7209 53.2175 39.0976 51.6451 39.8282C50.0727 40.5589 48.6799 41.6259 47.565 42.9537L49.4787 34.9537C49.6063 34.4169 49.6107 33.8582 49.4915 33.3195C49.3724 32.7807 49.1328 32.276 48.7908 31.843C48.4488 31.4101 48.0131 31.0602 47.5166 30.8196C47.0201 30.579 46.4755 30.4539 45.9238 30.4537H43.6025L42.8162 25.3025C42.7193 24.6475 42.3894 24.0495 41.8869 23.6182C41.3845 23.187 40.7434 22.9515 40.0812 22.955H37.9375C37.7717 22.955 37.6128 23.0208 37.4956 23.1381C37.3783 23.2553 37.3125 23.4142 37.3125 23.58C37.3125 23.7458 37.3783 23.9047 37.4956 24.0219C37.6128 24.1391 37.7717 24.205 37.9375 24.205H40.0812C40.4442 24.2029 40.7958 24.3318 41.0714 24.5681C41.3469 24.8044 41.528 25.1322 41.5812 25.4912L42.34 30.4537H21.6612L22.42 25.4912C22.4733 25.1322 22.6543 24.8044 22.9299 24.5681C23.2054 24.3318 23.557 24.2029 23.92 24.205H34.1875C34.3533 24.205 34.5122 24.1391 34.6294 24.0219C34.7467 23.9047 34.8125 23.7458 34.8125 23.58C34.8125 23.4142 34.7467 23.2553 34.6294 23.1381C34.5122 23.0208 34.3533 22.955 34.1875 22.955H23.9188C23.2566 22.9515 22.6155 23.187 22.1131 23.6182C21.6106 24.0495 21.2807 24.6475 21.1838 25.3025L20.3975 30.4537H18.0763C17.5245 30.4539 16.9799 30.579 16.4834 30.8196C15.9869 31.0602 15.5513 31.4101 15.2092 31.843C14.8672 32.276 14.6276 32.7807 14.5085 33.3195C14.3893 33.8582 14.3937 34.4169 14.5212 34.9537L16.125 41.6675C15.2463 40.7359 14.1861 39.9941 13.0097 39.488C11.8333 38.982 10.5656 38.7223 9.285 38.725H2.5C2.33424 38.725 2.17527 38.7908 2.05806 38.9081C1.94085 39.0253 1.875 39.1842 1.875 39.35V61.5C1.875 61.6658 1.94085 61.8247 2.05806 61.9419C2.17527 62.0591 2.33424 62.125 2.5 62.125H61.5C61.6658 62.125 61.8247 62.0591 61.9419 61.9419C62.0592 61.8247 62.125 61.6658 62.125 61.5V39.35C62.125 39.1842 62.0592 39.0253 61.9419 38.9081C61.8247 38.7908 61.6658 38.725 61.5 38.725ZM15.7375 34.6637C15.6531 34.3104 15.6498 33.9425 15.728 33.5877C15.8061 33.2329 15.9637 32.9004 16.1887 32.6152C16.4138 32.33 16.7005 32.0994 17.0275 31.9409C17.3544 31.7824 17.7129 31.7001 18.0763 31.7H45.9238C46.2871 31.7001 46.6456 31.7824 46.9725 31.9409C47.2995 32.0994 47.5862 32.33 47.8113 32.6152C48.0363 32.9004 48.1939 33.2329 48.272 33.5877C48.3502 33.9425 48.3469 34.3104 48.2625 34.6637L45.1138 47.83C45.1142 47.8341 45.1142 47.8383 45.1138 47.8425L43.2762 55.5225C43.1568 56.011 42.9326 56.4676 42.6192 56.8609C42.3058 57.2541 41.9107 57.5746 41.4613 57.8L41.4388 57.8112C41.3775 57.8412 41.3137 57.8662 41.2525 57.8925L41.1888 57.9187C41.1375 57.9387 41.085 57.9537 41.0337 57.9712L40.9338 58.0037C40.89 58.0162 40.8463 58.025 40.8025 58.035C40.7588 58.045 40.7175 58.0562 40.6775 58.0637C40.6375 58.0712 40.595 58.0762 40.5525 58.0825L40.4162 58.1012C40.36 58.1012 40.3025 58.1075 40.2463 58.11H40.1562H40.1437C39.8996 58.1043 39.6664 58.0076 39.4899 57.8387C39.3134 57.6699 39.2065 57.4412 39.19 57.1975C38.9 53.4087 38.025 48.9562 36.9062 45.5725C35.4625 41.2237 33.8125 39.015 32 39.015C30.1875 39.015 28.5375 41.2237 27.0963 45.58C25.9713 48.955 25.0962 53.4137 24.8125 57.205C24.7961 57.4485 24.6893 57.677 24.5131 57.8458C24.3368 58.0146 24.1039 58.1115 23.86 58.1175H23.8463C22.7775 58.1175 21.755 57.4925 21.1612 56.5537C20.9605 56.2376 20.8135 55.8904 20.7262 55.5262L18.435 45.9487C18.4354 45.9454 18.4354 45.9421 18.435 45.9387L15.7375 34.6637ZM60.875 60.875H3.125V39.975H9.285C11.1182 39.9701 12.8992 40.5847 14.3391 41.7192C15.7791 42.8538 16.7934 44.4416 17.2175 46.225L19.51 55.8087C19.6166 56.2551 19.788 56.6834 20.0187 57.08C20.8175 58.455 22.2688 59.36 23.8463 59.36H23.8662C23.8937 59.36 23.92 59.36 23.9475 59.36C23.975 59.36 24.035 59.36 24.0725 59.3537H24.085C24.6001 59.2923 25.0779 59.0541 25.4371 58.6799C25.7964 58.3056 26.0147 57.8184 26.055 57.3012C26.3375 53.6075 27.1888 49.2675 28.2775 45.9762C29.46 42.4025 30.85 40.2687 31.995 40.2687C33.14 40.2687 34.53 42.4025 35.7125 45.975C36.8013 49.2675 37.6525 53.6062 37.935 57.3C37.9808 57.8537 38.2299 58.3708 38.6342 58.7518C39.0386 59.1329 39.5696 59.3508 40.125 59.3637H40.155C42.1125 59.3637 43.8862 57.9612 44.4412 56.0037C44.46 55.94 44.4762 55.8787 44.4912 55.8125L46.33 48.125C46.8819 45.8007 48.203 43.731 50.0791 42.252C51.9552 40.7731 54.2761 39.9715 56.665 39.9775H60.875V60.875Z" fill="#123F35"/>
<path d="M13.625 19.28C13.6576 19.4166 13.7353 19.5383 13.8455 19.6254C13.9557 19.7124 14.092 19.7599 14.2325 19.76H49.7638C49.9042 19.7599 50.0406 19.7124 50.1508 19.6254C50.261 19.5383 50.3387 19.4166 50.3713 19.28L50.9738 16.76C52.1725 11.7462 51.0225 6.69247 48.045 3.88497C46.0588 2.00997 43.5113 1.42372 40.8713 2.22247L36.6525 3.49997C33.6216 4.4371 30.3784 4.4371 27.3475 3.49997L23.125 2.22247C20.485 1.42372 17.9375 2.01372 15.9513 3.88497C12.9738 6.69247 11.8263 11.7462 13.0225 16.76L13.625 19.28ZM16.8125 4.79497C17.9775 3.69747 19.955 2.56747 22.7663 3.41997L26.985 4.69872C30.2521 5.70869 33.7479 5.70869 37.015 4.69872L41.2338 3.41997C44.045 2.56872 46.0225 3.69872 47.1875 4.79497C49.805 7.26122 50.8375 11.9537 49.7588 16.4687L49.27 18.51H14.73L14.2413 16.4687C13.1625 11.9537 14.195 7.26122 16.8125 4.79497Z" fill="#123F35"/>
</svg>
