<svg width="40" height="40" viewBox="0 0 40 40" fill="none" xmlns="http://www.w3.org/2000/svg">
<g clip-path="url(#clip0_98_3127)">
<path d="M2.80396 14.8716C2.93784 16.9293 3.14372 18.092 3.45396 19.4048V19.4068V19.409C5.16454 26.3664 9.57407 29.6334 12.9716 31.1488C16.5384 32.7396 19.6848 32.779 19.9767 32.779H20.0136C20.3125 32.779 23.4588 32.7395 27.0254 31.1488C30.4234 29.6334 34.8329 26.3664 36.543 19.409V19.4068L36.5437 19.4048C36.854 18.092 37.1937 16.9342 37.1937 14.8716C37.1831 14.7689 37.1556 14.6687 37.1123 14.575C36.9724 14.3709 33.6 9.55151 26.0618 7.34821C25.6098 7.21717 25.1344 7.18746 24.6696 7.26119C24.2047 7.33493 23.7619 7.5103 23.3725 7.7748C22.5983 8.29539 21.3843 8.91598 19.9978 8.91598C18.6114 8.91598 17.3978 8.29539 16.6231 7.7748C16.2338 7.51034 15.791 7.33499 15.3261 7.26126C14.8613 7.18752 14.3859 7.21721 13.9338 7.34821C6.39584 9.55104 2.99607 14.3547 2.88348 14.575C2.83569 14.6669 2.80855 14.7681 2.80396 14.8716ZM24.8771 11.4552C24.8515 12.3413 24.779 13.2255 24.66 14.104C24.6445 14.2207 24.5882 14.3281 24.501 14.4072C24.4138 14.4862 24.3014 14.5318 24.1837 14.5359C22.9484 14.5829 21.8778 14.5977 21.1977 14.6019C21.1359 14.602 21.0748 14.6144 21.0177 14.6382C20.9607 14.662 20.9089 14.6968 20.8654 14.7406C20.8218 14.7845 20.7873 14.8364 20.7638 14.8936C20.7403 14.9508 20.7283 15.012 20.7285 15.0738C20.7287 15.1356 20.741 15.1968 20.7648 15.2538C20.7886 15.3108 20.8235 15.3626 20.8673 15.4062C20.9111 15.4497 20.9631 15.4842 21.0202 15.5077C21.0774 15.5312 21.1386 15.5432 21.2004 15.543H21.2034C21.8905 15.5389 22.9716 15.524 24.2196 15.4763C24.5735 15.4633 24.9102 15.32 25.1649 15.074C25.2879 15.1765 25.4283 15.2562 25.5795 15.3093C25.6867 15.8325 25.6854 16.3722 25.5755 16.8949C25.4355 16.8927 21.8417 17.027 19.9997 17.9744C18.1578 17.027 14.5657 16.8939 14.4243 16.896C14.3018 16.4254 14.378 15.5463 14.4201 15.3093C14.5712 15.2563 14.7116 15.1766 14.8345 15.074C15.0893 15.32 15.426 15.4633 15.78 15.4763C17.028 15.524 18.1094 15.5389 18.7962 15.543H18.8064C19.025 15.5431 19.2414 15.5 19.4433 15.4164C19.6453 15.3328 19.8287 15.2102 19.9832 15.0556C20.1378 14.901 20.2603 14.7176 20.3439 14.5156C20.4275 14.3137 20.4705 14.0972 20.4704 13.8787V11.0904C21.9458 11.1143 23.4179 11.2361 24.8771 11.4552ZM20.4704 27.3619V24.8108C20.4709 24.6891 20.5193 24.5724 20.6052 24.4862C20.6911 24.4 20.8075 24.3511 20.9293 24.3501C22.0342 24.3425 23.1362 24.2374 24.2227 24.036C24.3834 24.0061 24.5495 24.039 24.6867 24.1278C24.8239 24.2167 24.9219 24.3547 24.9604 24.5136C25.1024 25.2085 25.1736 25.9159 25.173 26.6252C23.6355 27.0343 22.0594 27.2812 20.4704 27.3619ZM14.8262 26.6252C14.8254 25.9235 14.8948 25.2236 15.0334 24.5357C15.0671 24.3717 15.1639 24.2275 15.3029 24.134C15.4419 24.0406 15.612 24.0054 15.7767 24.036C16.8633 24.2375 17.9656 24.3426 19.0708 24.3501C19.1925 24.351 19.309 24.3999 19.3949 24.4862C19.4808 24.5724 19.5292 24.6891 19.5296 24.8108V27.3619C17.9403 27.2813 16.364 27.0344 14.8262 26.6252ZM4.3556 19.1289C4.04196 17.8105 3.84419 16.4673 3.76454 15.1144C4.19513 14.8847 4.63431 14.6622 5.08678 14.452L5.09078 14.4501C5.30254 14.3516 5.51913 14.2572 5.73572 14.163C6.70513 14.4769 7.94666 14.7426 9.43066 14.9533C9.49044 14.9618 9.55075 14.966 9.61113 14.966C9.89844 14.966 10.1771 14.8674 10.4003 14.6866C10.6751 14.9727 11.0428 15.1517 11.4376 15.1914C12.0768 15.2541 12.7564 15.309 13.4602 15.3561C13.4301 15.5697 13.3717 16.4517 13.4698 16.928C12.3605 16.9801 11.2572 17.1214 10.1705 17.3503C10.0486 17.3769 9.94211 17.4507 9.87461 17.5558C9.8071 17.6608 9.78408 17.7883 9.8106 17.9103C9.83713 18.0323 9.91102 18.1387 10.016 18.2062C10.121 18.2737 10.2486 18.2967 10.3705 18.2702C11.8411 17.9669 13.3397 17.8202 14.8411 17.8326C15.0176 17.8402 17.9187 17.9803 19.53 18.7919V20.643C19.53 20.7678 19.5795 20.8875 19.6678 20.9758C19.756 21.064 19.8757 21.1136 20.0005 21.1136C20.1254 21.1136 20.245 21.064 20.3333 20.9758C20.4216 20.8875 20.4711 20.7678 20.4711 20.643V18.7914C22.0829 17.9796 24.9833 17.8397 25.1601 17.8321C27.9494 17.833 29.8524 18.2682 30.9289 18.6162C30.9015 18.6707 30.6396 19.3975 30.6853 19.7076C30.3706 19.7706 30.0848 19.934 29.8708 20.1732C29.6217 20.4509 29.3521 20.7095 29.0644 20.947C28.8353 21.1355 28.6742 21.3938 28.6056 21.6824C28.3046 21.6419 27.9986 21.699 27.7324 21.8453C27.1651 22.1544 26.5716 22.4129 25.9588 22.6175C25.6079 22.7356 25.3111 22.9758 25.1223 23.2942C24.7978 23.1072 24.4172 23.0422 24.049 23.111C23.0181 23.3021 21.9723 23.4018 20.9238 23.4089C20.5824 23.4114 20.2537 23.5388 19.9998 23.7672C19.7461 23.5388 19.4174 23.4114 19.0761 23.4089C18.0276 23.4018 16.9818 23.3021 15.9509 23.111C15.5827 23.0423 15.2021 23.1072 14.8775 23.2941C14.6887 22.9756 14.3919 22.7354 14.041 22.6173C13.4282 22.4126 12.8347 22.1542 12.2674 21.8452C12.0013 21.6987 11.6952 21.6416 11.3942 21.6821C11.3256 21.3935 11.1644 21.1353 10.9354 20.9468C10.6477 20.7093 10.3781 20.4506 10.1289 20.1729C9.91495 19.9337 9.62921 19.7704 9.31454 19.7074C9.36195 19.3887 9.30543 19.0633 9.15337 18.7793C9.04749 18.5824 8.95078 18.3781 8.86466 18.172C8.75918 17.9188 8.58105 17.7025 8.35276 17.5505C8.12447 17.3984 7.85625 17.3174 7.58196 17.3176H6.90407C6.6076 17.3162 6.31851 17.4101 6.07945 17.5854C5.84038 17.7608 5.664 18.0083 5.57631 18.2915C5.37631 18.9346 5.19207 19.6408 5.21419 20.4104C4.89792 20.0044 4.61111 19.5763 4.35596 19.1294L4.3556 19.1289ZM9.93137 13.6621C9.93676 13.7119 9.93064 13.7623 9.91346 13.8094C9.89629 13.8565 9.86852 13.899 9.83231 13.9336C9.79714 13.9681 9.75446 13.994 9.70762 14.0092C9.66077 14.0244 9.61103 14.0286 9.56231 14.0214C8.66901 13.8946 7.87101 13.7481 7.17407 13.5837C8.03682 13.2615 8.92921 12.9723 9.85125 12.7161C9.87337 13.0413 9.89972 13.3584 9.93172 13.6621H9.93137ZM33.5057 21.7488C33.0987 21.0383 32.5362 20.4292 31.8604 19.9669C31.7442 19.887 31.6612 19.7673 31.6271 19.6304C31.593 19.4935 31.6102 19.3488 31.6754 19.2237C31.7948 19.0002 31.9049 18.7689 32.0027 18.5353C32.0367 18.4532 32.0943 18.3831 32.1681 18.3338C32.242 18.2845 32.3288 18.2582 32.4176 18.2582H33.0955C33.1911 18.2575 33.2844 18.2876 33.3616 18.3439C33.4389 18.4003 33.4959 18.48 33.5244 18.5713C33.8971 19.7679 34.0138 20.6994 33.5057 21.7488ZM6.49396 21.7488C5.98501 20.6983 6.10196 19.7693 6.47501 18.5713C6.50353 18.48 6.56063 18.4003 6.63788 18.3439C6.71513 18.2876 6.80845 18.2575 6.90407 18.2582H7.58196C7.67076 18.2582 7.75758 18.2845 7.83143 18.3338C7.90529 18.3831 7.96287 18.4532 7.9969 18.5353C8.09466 18.7689 8.20478 19.0006 8.32419 19.2237C8.38532 19.3497 8.40027 19.4931 8.36645 19.6289C8.33263 19.7647 8.25217 19.8844 8.13913 19.9669C7.51615 20.4874 6.96317 21.0863 6.49396 21.7488ZM8.71525 20.7127C8.82421 20.6375 8.957 20.6049 9.0884 20.6211C9.2198 20.6373 9.34067 20.7012 9.42807 20.8007C9.70869 21.1135 10.0123 21.4049 10.3363 21.6724C10.4061 21.7326 10.4547 21.8137 10.475 21.9036C10.4952 21.9935 10.486 22.0876 10.4487 22.1719C10.1553 22.9179 9.92887 23.6885 9.77207 24.4747C9.08801 24.0577 8.43363 23.5938 7.8136 23.0864C7.58278 22.897 7.36454 22.7084 7.1589 22.5206C7.1589 22.5206 7.83266 21.3436 8.71525 20.7127ZM11.1564 22.8941C11.1805 22.8344 11.2172 22.7806 11.2638 22.7363C11.3105 22.6919 11.3662 22.6581 11.427 22.6372C11.4901 22.6146 11.5572 22.6058 11.624 22.6115C11.6907 22.6171 11.7555 22.637 11.8138 22.6699C12.43 23.0059 13.0747 23.2867 13.7403 23.5092C13.8795 23.5581 13.9964 23.6555 14.0698 23.7834C14.1432 23.9114 14.1682 24.0615 14.1403 24.2063C14.0032 24.9131 13.9189 25.6291 13.8881 26.3484C12.7707 25.9917 11.6883 25.5337 10.6542 24.9802C10.7268 24.2654 10.8957 23.5636 11.1564 22.8941ZM26.1113 26.3484C26.072 25.6298 25.9878 24.9144 25.8591 24.2063C25.8306 24.0613 25.8555 23.911 25.9291 23.7828C26.0027 23.6547 26.1201 23.5575 26.2597 23.5092C26.9254 23.2867 27.57 23.0058 28.1862 22.6697C28.2446 22.637 28.3093 22.6171 28.3761 22.6115C28.4428 22.6059 28.51 22.6146 28.573 22.6372C28.6329 22.658 28.6877 22.6912 28.7338 22.7347C28.7799 22.7782 28.8163 22.8309 28.8405 22.8895C29.1028 23.5603 29.2725 24.2638 29.3448 24.9804C28.3108 25.5339 27.2285 25.9918 26.1113 26.3484ZM30.2263 24.4754C30.0959 23.6829 29.8691 22.9093 29.5508 22.1719C29.5115 22.0879 29.5012 21.9933 29.5216 21.9029C29.542 21.8125 29.5918 21.7314 29.6633 21.6724C29.9873 21.4049 30.2908 21.1135 30.5714 20.8007C30.6592 20.7019 30.78 20.6386 30.9112 20.6224C31.0424 20.6062 31.175 20.6383 31.2842 20.7127C31.2883 20.7155 31.2929 20.717 31.297 20.7197C31.3049 20.7254 31.312 20.7315 31.32 20.7374C31.9786 21.1832 32.5043 21.799 32.8413 22.5195C32.6353 22.707 32.4169 22.8959 32.186 23.086C31.5656 23.5938 30.9108 24.058 30.2263 24.4754ZM34.4234 18.2915C34.3358 18.0082 34.1594 17.7606 33.9204 17.5851C33.6814 17.4097 33.3922 17.3157 33.0957 17.317H32.4178C32.2232 17.3169 32.0308 17.3577 31.853 17.4369C31.6752 17.516 31.5161 17.6317 31.386 17.7764C30.4496 17.4588 28.839 17.0492 26.5304 16.9272C26.5961 16.4056 26.5993 15.878 26.54 15.3556C27.2437 15.3086 27.9234 15.2541 28.5627 15.1909C28.9574 15.1512 29.3251 14.9722 29.5998 14.6861C29.817 14.8775 30.0998 14.9776 30.389 14.9655C31.7033 14.8126 33.0015 14.5434 34.2683 14.1613C35.2213 14.5776 35.896 14.9247 36.2363 15.1075C36.1566 16.4625 35.9583 17.8079 35.6438 19.1283C35.3885 19.5755 35.1015 20.0038 34.785 20.41C34.8074 19.641 34.6234 18.935 34.4234 18.2915ZM30.4371 14.0209C30.3883 14.0283 30.3384 14.0243 30.2915 14.009C30.2445 13.9938 30.2017 13.9678 30.1665 13.9332C30.1304 13.8985 30.1026 13.856 30.0855 13.8089C30.0683 13.7618 30.0622 13.7114 30.0676 13.6616C30.0676 13.6606 30.0676 13.6596 30.0676 13.6586C30.1016 13.3348 30.1297 12.9962 30.1525 12.6476C31.1525 12.9513 32.0575 13.2712 32.8498 13.577C32.147 13.7447 31.341 13.8932 30.4369 14.0214L30.4371 14.0209ZM29.1283 13.5986C29.1103 13.7666 29.0352 13.9234 28.9155 14.0427C28.7958 14.162 28.6388 14.2367 28.4707 14.2542C27.7124 14.3286 26.8978 14.3923 26.0497 14.4439C25.9903 14.4476 25.9309 14.4381 25.8756 14.416C25.8203 14.394 25.7706 14.36 25.7301 14.3164C25.6892 14.2735 25.6584 14.222 25.64 14.1657C25.6215 14.1093 25.6159 14.0496 25.6235 13.9908C25.6235 13.9884 25.6235 13.9862 25.6235 13.9839C25.7269 13.1509 25.7907 12.3548 25.8141 11.6074C27.0304 11.8221 28.1735 12.0889 29.2269 12.3797C29.2023 12.8037 29.1694 13.2126 29.1281 13.599L29.1283 13.5986ZM19.5293 13.8787C19.5293 13.9736 19.5106 14.0677 19.4743 14.1554C19.438 14.2431 19.3848 14.3229 19.3177 14.39C19.2505 14.4572 19.1708 14.5105 19.0831 14.5468C18.9954 14.5832 18.9014 14.6019 18.8064 14.6019H18.802C18.1217 14.5977 17.0515 14.583 15.816 14.5359C15.6983 14.5318 15.5859 14.4862 15.4987 14.4072C15.4115 14.3281 15.3552 14.2207 15.3397 14.104C15.336 14.0757 15.1418 12.2104 15.1228 11.4553C16.5819 11.2361 18.054 11.1142 19.5293 11.0903V13.8787ZM14.1851 11.6081C14.2087 12.357 14.2727 13.1568 14.3764 13.9914C14.3835 14.0503 14.3776 14.11 14.3591 14.1664C14.3406 14.2228 14.3099 14.2744 14.2693 14.3176C14.2286 14.3608 14.179 14.3946 14.1238 14.4165C14.0687 14.4384 14.0094 14.448 13.9502 14.4444C13.1021 14.3929 12.2875 14.3292 11.5293 14.2548C11.3611 14.2373 11.2041 14.1626 11.0844 14.0433C10.9648 13.924 10.8896 13.7672 10.8716 13.5992C10.8716 13.5947 10.8695 13.5907 10.8689 13.5863C10.8689 13.5788 10.8689 13.5714 10.8678 13.5639C10.8283 13.1874 10.7965 12.7904 10.7728 12.3801C11.8258 12.0892 12.969 11.8227 14.185 11.608L14.1851 11.6081ZM26.6764 30.2744C23.1885 31.8392 20.0387 31.8392 19.9965 31.8377C19.9665 31.8388 16.8111 31.8389 13.3231 30.2744C9.5349 28.5756 6.83313 25.7803 5.26148 21.946C5.85348 22.6048 6.49402 23.2182 7.17772 23.7813C9.54101 25.7324 13.6822 28.1041 19.9832 28.3249C19.9878 28.3249 19.9924 28.3249 19.9969 28.3249C19.9978 28.3249 19.9988 28.3249 19.9997 28.3249C20.0007 28.3249 20.0016 28.3249 20.0027 28.3249C20.0071 28.3249 20.0117 28.3249 20.0163 28.3249C21.9394 28.2663 23.8483 27.9748 25.7011 27.4566C25.747 27.4505 25.7917 27.4376 25.8338 27.4183C27.2911 26.9982 28.6966 26.4159 30.024 25.6823C30.0614 25.6674 30.0966 25.6476 30.1289 25.6235C31.0791 25.0901 31.9802 24.4737 32.8218 23.7815C33.5055 23.2185 34.1461 22.605 34.7381 21.9462C33.1664 25.7806 30.4641 28.5756 26.6764 30.2744ZM14.1998 8.25162C14.5194 8.1595 14.8554 8.139 15.1838 8.19159C15.5122 8.24418 15.825 8.36855 16.0998 8.55586C16.9829 9.14951 18.3763 9.85715 19.9998 9.85715C21.6234 9.85715 23.0168 9.14951 23.8997 8.55586C24.1746 8.36856 24.4874 8.24419 24.8158 8.1916C25.1442 8.13901 25.4802 8.15951 25.7998 8.25162C30.1628 9.52657 33.0958 11.7575 34.7373 13.3269C31.8727 12.0542 26.494 10.1454 19.9998 10.1454C13.5057 10.1454 8.1269 12.0542 5.26243 13.3269C6.90384 11.7569 9.83701 9.52657 14.1998 8.25162Z" fill="#123F35"/>
</g>
<defs>
<clipPath id="clip0_98_3127">
<rect width="40" height="40" fill="white"/>
</clipPath>
</defs>
</svg>
